<svg width="73" height="62" viewBox="0 0 73 62" fill="none" xmlns="http://www.w3.org/2000/svg">
<path d="M63.875 26.2921C63.875 44.1461 36.5 59.4494 36.5 59.4494C36.5 59.4494 9.125 44.1461 9.125 26.2921C9.125 20.2041 12.0091 14.3654 17.143 10.0604C22.2768 5.75554 29.2397 3.33706 36.5 3.33706C43.7603 3.33706 50.7232 5.75554 55.857 10.0604C60.9909 14.3654 63.875 20.2041 63.875 26.2921Z" stroke="white" stroke-width="2" stroke-linecap="round" stroke-linejoin="round"/>
<path d="M36.5 33.9438C41.5396 33.9438 45.625 30.518 45.625 26.2921C45.625 22.0662 41.5396 18.6404 36.5 18.6404C31.4604 18.6404 27.375 22.0662 27.375 26.2921C27.375 30.518 31.4604 33.9438 36.5 33.9438Z" stroke="white" stroke-width="2" stroke-linecap="round" stroke-linejoin="round"/>
</svg>
