<svg width="73" height="69" viewBox="0 0 73 69" fill="none" xmlns="http://www.w3.org/2000/svg">
<path d="M57.7915 3.35593L69.9582 14.7723L57.7915 26.1887" stroke="white" stroke-width="2" stroke-linecap="round" stroke-linejoin="round"/>
<path d="M45.625 14.7723H69.9583" stroke="white" stroke-width="2" stroke-linecap="round" stroke-linejoin="round"/>
<path d="M66.9164 48.7931V57.3553C66.9198 58.1502 66.7463 58.937 66.4069 59.6653C66.0675 60.3936 65.5698 61.0473 64.9456 61.5847C64.3214 62.1221 63.5844 62.5312 62.782 62.7858C61.9795 63.0405 61.1292 63.1351 60.2855 63.0635C50.9258 62.1092 41.9352 59.1082 34.0359 54.3015C26.6868 49.9195 20.4559 44.0729 15.7859 37.1769C10.6455 29.7312 7.44643 21.2539 6.44803 12.4319C6.37202 11.6427 6.47198 10.8472 6.74155 10.0962C7.01112 9.3452 7.44439 8.65508 8.01377 8.0698C8.58316 7.48451 9.27618 7.01689 10.0487 6.69669C10.8213 6.3765 11.6564 6.21076 12.5009 6.21001H21.6259C23.1021 6.19638 24.5331 6.68687 25.6524 7.59006C26.7716 8.49324 27.5027 9.7475 27.7093 11.119C28.0944 13.8592 28.8087 16.5496 29.8384 19.139C30.2477 20.1606 30.3363 21.2708 30.0937 22.3381C29.8511 23.4055 29.2875 24.3852 28.4697 25.1612L24.6068 28.7859C28.9368 35.9312 35.2418 41.8475 42.8568 45.9104L46.7197 42.2857C47.5467 41.5184 48.5908 40.9895 49.7283 40.7619C50.8657 40.5343 52.0489 40.6174 53.1376 41.0014C55.8972 41.9676 58.7645 42.6379 61.6847 42.9992C63.1622 43.1948 64.5116 43.8932 65.4762 44.9614C66.4408 46.0297 66.9534 47.3933 66.9164 48.7931Z" stroke="white" stroke-width="2" stroke-linecap="round" stroke-linejoin="round"/>
</svg>
